<svg width="760" height="180" viewBox="0 0 760 180" fill="none" xmlns="http://www.w3.org/2000/svg">
  <rect width="760" height="180" fill="white" fill-opacity="0"/>
  <circle cx="92" cy="88" r="47" fill="#2CAB62"/>
  <circle cx="92" cy="88" r="33" fill="white"/>
  <path d="M92 43L100.146 74.8541H132L106.236 93.9918L114.382 126L92 106.588L69.6184 126L77.7639 93.9918L52 74.8541H83.8541L92 43Z" fill="#2CAB62"/>
  <path d="M171.01 116V54.836H185.738V79.724H213.098V54.836H227.918V116H213.098V92.79H185.738V116H171.01ZM244.841 85.8C244.841 78.5187 246.5 72.296 249.817 67.132C253.195 61.968 257.716 58.004 263.381 55.24C269.107 52.4147 275.483 51.002 282.509 51.002C289.597 51.002 295.973 52.4147 301.637 55.24C307.363 58.004 311.884 61.968 315.2 67.132C318.579 72.296 320.268 78.5187 320.268 85.8C320.268 93.0813 318.579 99.3347 315.2 104.56C311.884 109.724 307.363 113.719 301.637 116.544C295.973 119.308 289.597 120.69 282.509 120.69C275.483 120.69 269.107 119.308 263.381 116.544C257.716 113.719 253.195 109.724 249.817 104.56C246.5 99.3347 244.841 93.0813 244.841 85.8ZM259.935 85.8C259.935 89.9147 260.759 93.4813 262.408 96.5C264.057 99.5187 266.332 101.855 269.23 103.508C272.128 105.16 275.221 105.986 278.509 105.986C281.858 105.986 284.981 105.16 287.879 103.508C290.777 101.855 293.052 99.5187 294.701 96.5C296.35 93.4813 297.174 89.9147 297.174 85.8C297.174 81.6853 296.35 78.1493 294.701 75.192C293.052 72.1733 290.777 69.8373 287.879 68.184C284.981 66.5307 281.858 65.704 278.509 65.704C275.221 65.704 272.128 66.5307 269.23 68.184C266.332 69.8373 264.057 72.1733 262.408 75.192C260.759 78.1493 259.935 81.6853 259.935 85.8ZM334.69 116V54.836H349.418V116H334.69ZM366.924 116V54.836H388.258L401.152 95.03L413.862 54.836H435.104V116H421.204V77.09L408.218 116H393.902L380.916 77.09V116H366.924ZM453.365 116V54.836H468.093V116H453.365ZM485.507 116V67.992H468.369V54.836H517.373V67.992H500.235V116H485.507ZM518.7 85.8C518.7 78.5187 520.359 72.296 523.676 67.132C527.054 61.968 531.576 58.004 537.24 55.24C542.966 52.4147 549.342 51.002 556.368 51.002C563.456 51.002 569.832 52.4147 575.496 55.24C581.222 58.004 585.743 61.968 589.06 67.132C592.438 72.296 594.127 78.5187 594.127 85.8C594.127 93.0813 592.438 99.3347 589.06 104.56C585.743 109.724 581.222 113.719 575.496 116.544C569.832 119.308 563.456 120.69 556.368 120.69C549.342 120.69 542.966 119.308 537.24 116.544C531.576 113.719 527.054 109.724 523.676 104.56C520.359 99.3347 518.7 93.0813 518.7 85.8ZM533.794 85.8C533.794 89.9147 534.618 93.4813 536.267 96.5C537.916 99.5187 540.191 101.855 543.09 103.508C545.988 105.16 549.08 105.986 552.368 105.986C555.717 105.986 558.84 105.16 561.738 103.508C564.636 101.855 566.911 99.5187 568.56 96.5C570.209 93.4813 571.033 89.9147 571.033 85.8C571.033 81.6853 570.209 78.1493 568.56 75.192C566.911 72.1733 564.636 69.8373 561.738 68.184C558.84 66.5307 555.717 65.704 552.368 65.704C549.08 65.704 545.988 66.5307 543.09 68.184C540.191 69.8373 537.916 72.1733 536.267 75.192C534.618 78.1493 533.794 81.6853 533.794 85.8ZM607.897 116V54.836H631.291L656.089 96.592V54.836H670.817V116H647.331L622.625 74.24V116H607.897Z" fill="#1E1716"/>
  <path d="M270 140H585" stroke="#1E1716" stroke-width="4" stroke-linecap="round"/>
  <path d="M292.481 164V149.8H296.081L300.261 160.8L304.421 149.8H308.041V164H305.661V152.84L301.401 164H299.101L294.841 152.84V164H292.481ZM316.835 164V149.8H319.255V164H316.835ZM326.907 164L331.767 149.8H334.547L339.407 164H336.807L335.727 160.7H330.547L329.467 164H326.907ZM331.227 158.54H335.047L333.127 152.68L331.227 158.54ZM347.015 164V149.8H349.735L355.695 159.8V149.8H358.115V164H355.375L349.435 154V164H347.015ZM366.902 164V149.8H372.642C374.162 149.8 375.409 150.06 376.382 150.58C377.369 151.1 378.102 151.84 378.582 152.8C379.075 153.747 379.322 154.873 379.322 156.18V157.62C379.322 158.927 379.075 160.06 378.582 161.02C378.102 161.967 377.369 162.7 376.382 163.22C375.409 163.74 374.162 164 372.642 164H366.902ZM369.322 161.84H372.602C373.509 161.84 374.235 161.693 374.782 161.4C375.342 161.093 375.749 160.647 376.002 160.06C376.269 159.46 376.402 158.72 376.402 157.84V155.96C376.402 155.08 376.269 154.347 376.002 153.76C375.749 153.16 375.342 152.713 374.782 152.42C374.235 152.113 373.509 151.96 372.602 151.96H369.322V161.84ZM386.996 164V149.8H396.136V151.96H389.416V155.68H395.556V157.84H389.416V161.84H396.136V164H386.996ZM409.064 164V151.96H404.764V149.8H415.784V151.96H411.484V164H409.064ZM428.394 164.24C427.021 164.24 425.841 163.94 424.854 163.34C423.867 162.74 423.107 161.887 422.574 160.78C422.041 159.66 421.774 158.333 421.774 156.8C421.774 155.267 422.041 153.947 422.574 152.84C423.107 151.72 423.867 150.86 424.854 150.26C425.841 149.66 427.021 149.36 428.394 149.36C429.781 149.36 430.967 149.66 431.954 150.26C432.941 150.86 433.701 151.72 434.234 152.84C434.767 153.947 435.034 155.267 435.034 156.8C435.034 158.333 434.767 159.66 434.234 160.78C433.701 161.887 432.941 162.74 431.954 163.34C430.967 163.94 429.781 164.24 428.394 164.24ZM428.394 162.02C429.261 162.02 429.994 161.813 430.594 161.4C431.194 160.973 431.647 160.367 431.954 159.58C432.274 158.793 432.434 157.867 432.434 156.8C432.434 155.733 432.274 154.813 431.954 154.04C431.647 153.253 431.194 152.653 430.594 152.24C429.994 151.813 429.261 151.6 428.394 151.6C427.541 151.6 426.814 151.813 426.214 152.24C425.627 152.653 425.174 153.253 424.854 154.04C424.547 154.813 424.394 155.733 424.394 156.8C424.394 157.867 424.547 158.793 424.854 159.58C425.174 160.367 425.627 160.973 426.214 161.4C426.814 161.813 427.541 162.02 428.394 162.02ZM441.441 164L446.301 149.8H449.081L453.941 164H451.341L450.261 160.7H445.081L444.001 164H441.441ZM445.761 158.54H449.581L447.661 152.68L445.761 158.54ZM462.089 164V151.96H457.789V149.8H468.809V151.96H464.509V164H462.089Z" fill="#1E1716"/>
</svg>